<svg width="159" height="19" viewBox="0 0 159 19" fill="none" xmlns="http://www.w3.org/2000/svg">
<path d="M3.49063 3.71926L3.50686 9.25123L10.2628 9.23141L10.2695 11.4994L3.51351 11.5192L3.53466 18.7312L0.714677 18.7395L0.663989 1.45954L11.4399 1.42793L11.4466 3.69592L3.49063 3.71926ZM22.0036 12.197L19.6091 5.89198C19.4157 5.40455 19.2179 4.78513 19.0157 4.03372C18.9288 4.40997 18.8338 4.75825 18.7307 5.07856C18.6277 5.39086 18.5325 5.66714 18.4452 5.9074L16.0877 12.2143L22.0036 12.197ZM27.3386 18.6614L25.1666 18.6677C24.9186 18.6685 24.7185 18.6091 24.5661 18.4895C24.4137 18.3619 24.2973 18.2063 24.2167 18.0225L22.7656 14.2108L15.3256 14.2326L13.8968 18.0528C13.8333 18.213 13.7217 18.3613 13.5621 18.4978C13.4025 18.6342 13.2027 18.7028 12.9627 18.7035L10.7907 18.7099L17.592 1.40988L20.436 1.40154L27.3386 18.6614ZM42.4285 1.33703L35.4712 18.6375L32.9392 18.6449L25.8806 1.38557L28.1246 1.37899C28.3726 1.37826 28.5727 1.44167 28.7251 1.56923C28.8775 1.68878 28.9939 1.84044 29.0745 2.0242L33.5595 13.2791C33.8013 13.9104 34.0235 14.6377 34.2259 15.4611C34.3127 15.0529 34.4036 14.6646 34.4985 14.2963C34.6014 13.928 34.7124 13.5877 34.8315 13.2754L39.2384 1.99439C39.3019 1.8342 39.4135 1.68587 39.5731 1.5494C39.7327 1.41294 39.9325 1.34435 40.1725 1.34364L42.4285 1.33703ZM60.1673 9.92503C60.171 11.205 59.9665 12.3856 59.5537 13.4668C59.1408 14.5481 58.5556 15.4818 57.7979 16.268C57.0481 17.0462 56.1419 17.6569 55.0792 18.1C54.0245 18.5431 52.8492 18.7665 51.5532 18.7703C50.2652 18.7741 49.0885 18.5576 48.0233 18.1207C46.966 17.6838 46.0562 17.0785 45.2939 16.3047C44.5316 15.5229 43.9409 14.5926 43.5217 13.5139C43.1026 12.4351 42.8911 11.2557 42.8873 9.97572C42.8836 8.69572 43.0881 7.51512 43.501 6.4339C43.9138 5.35269 44.499 4.41897 45.2567 3.63274C46.0144 2.84651 46.9206 2.23185 47.9753 1.78876C49.0381 1.34564 50.2134 1.12219 51.5014 1.11841C52.7974 1.11461 53.974 1.33116 55.0313 1.76806C56.0966 2.20494 57.0064 2.81427 57.7607 3.59606C58.523 4.37783 59.1137 5.3081 59.5329 6.38688C59.9521 7.46565 60.1635 8.64504 60.1673 9.92503ZM57.2993 9.93344C57.2964 8.94145 57.1578 8.04985 56.8834 7.25865C56.6171 6.46743 56.2311 5.79656 55.7255 5.24604C55.2279 4.6955 54.6227 4.27327 53.9098 3.97936C53.1969 3.68545 52.3965 3.5398 51.5085 3.5424C50.6285 3.54498 49.8329 3.69532 49.1218 3.99341C48.4107 4.29149 47.8039 4.71727 47.3016 5.27075C46.7992 5.82423 46.4132 6.49736 46.1435 7.29016C45.8738 8.08295 45.7404 8.97535 45.7433 9.96734C45.7463 10.9673 45.8849 11.8629 46.1592 12.6541C46.4335 13.4453 46.8235 14.1162 47.3291 14.6667C47.8347 15.2092 48.4439 15.6274 49.1568 15.9214C49.8696 16.2073 50.6661 16.3489 51.5461 16.3463C52.4341 16.3437 53.2336 16.1974 53.9448 15.9073C54.6559 15.6092 55.2587 15.1875 55.7531 14.642C56.2555 14.0885 56.6375 13.4154 56.8992 12.6226C57.1688 11.8298 57.3022 10.9334 57.2993 9.93344ZM68.2587 9.54129C68.8987 9.53942 69.4584 9.46177 69.938 9.30837C70.4175 9.14696 70.8169 8.92579 71.1361 8.64485C71.4552 8.36391 71.6943 8.03121 71.8531 7.64674C72.012 7.25427 72.0907 6.82204 72.0893 6.35004C72.0866 5.40605 71.7725 4.68697 71.147 4.1928C70.5215 3.69863 69.5768 3.4534 68.3128 3.45711L66.0328 3.4638L66.0507 9.54777L68.2587 9.54129ZM76.421 18.5174L73.9131 18.5247C73.4171 18.5262 73.0565 18.3353 72.8314 17.9519L68.7823 12.1438C68.6457 11.9442 68.4973 11.8006 68.337 11.7131C68.1768 11.6255 67.9367 11.5822 67.6167 11.5832L66.0567 11.5878L66.0771 18.5477L63.2691 18.556L63.2184 1.27604L68.3064 1.26112C69.4424 1.25779 70.4187 1.37092 71.2354 1.60053C72.0601 1.83011 72.737 2.16012 73.2663 2.59057C73.7955 3.01302 74.185 3.52388 74.4348 4.12315C74.6926 4.7224 74.8225 5.39002 74.8247 6.12602C74.8264 6.72602 74.7361 7.28628 74.5536 7.80682C74.3791 8.32733 74.1205 8.8001 73.7778 9.2251C73.443 9.65009 73.0281 10.0193 72.533 10.3328C72.0379 10.6462 71.4746 10.8919 70.8432 11.0697C71.1878 11.2767 71.4846 11.5678 71.7337 11.9431L76.421 18.5174ZM81.3234 18.503L78.5034 18.5113L78.4527 1.23136L81.2727 1.22308L81.3234 18.503ZM97.2656 3.51618L91.8776 3.53199L91.9214 18.4719L89.1254 18.4801L89.0816 3.54019L83.6816 3.55603L83.6748 1.21604L97.2587 1.17619L97.2656 3.51618ZM115.245 9.76347C115.249 11.0435 115.044 12.2241 114.632 13.3053C114.219 14.3865 113.633 15.3202 112.876 16.1064C112.126 16.8846 111.22 17.4953 110.157 17.9384C109.102 18.3815 107.927 18.605 106.631 18.6088C105.343 18.6126 104.166 18.396 103.101 17.9591C102.044 17.5222 101.134 16.9169 100.372 16.1431C99.6095 15.3614 99.0188 14.4311 98.5996 13.3523C98.1804 12.2735 97.969 11.0942 97.9652 9.81416C97.9615 8.53416 98.166 7.35356 98.5788 6.27234C98.9917 5.19112 99.5769 4.2574 100.335 3.47118C101.092 2.68495 101.999 2.07029 103.053 1.6272C104.116 1.18408 105.291 0.960627 106.579 0.956849C107.875 0.953047 109.052 1.1696 110.109 1.6065C111.174 2.04337 112.084 2.65271 112.839 3.4345C113.601 4.21627 114.192 5.14654 114.611 6.22531C115.03 7.30409 115.241 8.48347 115.245 9.76347ZM112.377 9.77188C112.374 8.77988 112.236 7.88829 111.961 7.09709C111.695 6.30587 111.309 5.635 110.803 5.08448C110.306 4.53393 109.701 4.11171 108.988 3.8178C108.275 3.52389 107.474 3.37823 106.586 3.38084C105.706 3.38342 104.911 3.53375 104.2 3.83184C103.489 4.12993 102.882 4.55571 102.379 5.10919C101.877 5.66266 101.491 6.3358 101.221 7.12859C100.952 7.92139 100.818 8.81378 100.821 9.80578C100.824 10.8058 100.963 11.7014 101.237 12.4926C101.511 13.2838 101.901 13.9546 102.407 14.5051C102.913 15.0477 103.522 15.4659 104.235 15.7598C104.948 16.0457 105.744 16.1874 106.624 16.1848C107.512 16.1822 108.312 16.0358 109.023 15.7457C109.734 15.4477 110.337 15.0259 110.831 14.4804C111.333 13.927 111.715 13.2538 111.977 12.4611C112.247 11.6683 112.38 10.7719 112.377 9.77188ZM127.341 4.03996C127.253 4.18422 127.162 4.29249 127.066 4.36477C126.97 4.42905 126.85 4.4614 126.706 4.46183C126.554 4.46227 126.382 4.39878 126.19 4.27134C126.005 4.14388 125.773 4.00456 125.492 3.85338C125.22 3.69418 124.895 3.55113 124.519 3.42424C124.143 3.28934 123.695 3.22265 123.175 3.22418C122.695 3.22559 122.271 3.28683 121.903 3.40791C121.543 3.52897 121.24 3.69786 120.993 3.91458C120.745 4.13131 120.558 4.38786 120.431 4.68423C120.312 4.97258 120.253 5.28876 120.254 5.63276C120.255 6.07276 120.372 6.44041 120.605 6.73573C120.838 7.02305 121.142 7.27016 121.519 7.47705C121.904 7.68393 122.34 7.86665 122.829 8.02521C123.317 8.17578 123.814 8.33833 124.318 8.51285C124.831 8.68735 125.331 8.88588 125.82 9.10845C126.308 9.33101 126.741 9.61374 127.118 9.95664C127.503 10.2995 127.813 10.7186 128.046 11.2139C128.279 11.7092 128.397 12.3129 128.399 13.0249C128.402 13.7929 128.272 14.5133 128.01 15.186C127.748 15.8588 127.365 16.4479 126.863 16.9534C126.368 17.4509 125.753 17.8447 125.018 18.1348C124.291 18.425 123.46 18.5714 122.524 18.5742C121.972 18.5758 121.431 18.5214 120.903 18.4109C120.383 18.3084 119.882 18.1619 119.402 17.9713C118.929 17.7727 118.484 17.534 118.068 17.2552C117.651 16.9764 117.278 16.6655 116.949 16.3225L117.761 14.9761C117.833 14.8639 117.924 14.7756 118.036 14.7113C118.148 14.647 118.272 14.6146 118.408 14.6142C118.592 14.6137 118.796 14.7011 119.021 14.8764C119.245 15.0438 119.514 15.231 119.826 15.4381C120.147 15.6371 120.531 15.824 120.98 15.9987C121.428 16.1654 121.965 16.2478 122.589 16.246C123.605 16.243 124.388 15.9927 124.939 15.4951C125.497 14.9974 125.775 14.3126 125.772 13.4406C125.771 12.9526 125.654 12.5569 125.421 12.2536C125.188 11.9423 124.879 11.6832 124.495 11.4763C124.118 11.2694 123.686 11.0947 123.197 10.9521C122.709 10.8096 122.212 10.659 121.708 10.5005C121.203 10.334 120.707 10.1434 120.218 9.92888C119.73 9.70631 119.293 9.41959 118.908 9.06872C118.531 8.70983 118.225 8.27072 117.992 7.7514C117.758 7.22408 117.64 6.56843 117.638 5.78443C117.636 5.16043 117.754 4.55608 117.993 3.97138C118.239 3.38666 118.593 2.86962 119.056 2.42026C119.527 1.96287 120.106 1.59717 120.793 1.32316C121.48 1.04914 122.264 0.91084 123.144 0.908259C124.136 0.905349 125.044 1.05869 125.869 1.36827C126.702 1.67783 127.419 2.11972 128.021 2.69396L127.341 4.03996Z" fill="#BB0A08"/>
<path d="M137.398 17.3545C138.886 17.3502 140.009 17.0269 140.767 16.3846C141.533 15.7344 141.914 14.8253 141.911 13.6573C141.909 13.1213 141.804 12.6416 141.595 12.2182C141.393 11.7868 141.1 11.4236 140.715 11.1288C140.33 10.8259 139.858 10.5953 139.297 10.4369C138.737 10.2786 138.101 10.2004 137.389 10.2025L133.117 10.215L133.138 17.367L137.398 17.3545ZM133.094 2.34308L133.114 9.31505L136.786 9.30428C137.57 9.30198 138.238 9.20002 138.789 8.9984C139.348 8.79676 139.804 8.53142 140.155 8.20239C140.514 7.87334 140.777 7.50056 140.943 7.08407C141.11 6.66758 141.193 6.23934 141.192 5.79934C141.188 4.65534 140.822 3.79242 140.092 3.21055C139.37 2.62067 138.254 2.32794 136.742 2.33238L133.094 2.34308ZM136.739 1.36038C137.707 1.35754 138.547 1.45108 139.259 1.64099C139.972 1.8309 140.561 2.11317 141.026 2.48781C141.491 2.85445 141.836 3.30544 142.062 3.84078C142.288 4.37612 142.401 4.98379 142.403 5.66378C142.405 6.11178 142.326 6.54402 142.167 6.96048C142.016 7.37693 141.793 7.76158 141.498 8.11445C141.212 8.46729 140.852 8.77635 140.421 9.04161C139.998 9.29886 139.511 9.49629 138.959 9.63391C140.295 9.82199 141.321 10.263 142.035 10.9569C142.757 11.6428 143.12 12.5497 143.123 13.6777C143.125 14.3977 142.999 15.0461 142.745 15.6228C142.49 16.1996 142.12 16.6887 141.633 17.0901C141.146 17.4915 140.547 17.8013 139.836 18.0194C139.124 18.2295 138.316 18.3358 137.412 18.3385L131.904 18.3546L131.855 1.37471L136.739 1.36038ZM151.219 9.70594C151.971 9.70374 152.643 9.61377 153.234 9.43603C153.834 9.25027 154.337 8.98879 154.744 8.6516C155.159 8.31438 155.474 7.90945 155.689 7.43682C155.903 6.96419 156.01 6.43188 156.008 5.83988C156.004 4.63188 155.606 3.73705 154.812 3.15538C154.026 2.57368 152.878 2.28505 151.366 2.28948L148.258 2.2986L148.279 9.71457L151.219 9.70594ZM158.78 18.2758L157.724 18.2789C157.588 18.2793 157.472 18.2596 157.376 18.2199C157.288 18.1722 157.204 18.0884 157.124 17.9687L151.655 11.0967C151.591 11.0089 151.523 10.9331 151.451 10.8693C151.386 10.8055 151.31 10.7577 151.222 10.7259C151.142 10.6862 151.042 10.6585 150.922 10.6428C150.81 10.6271 150.67 10.6196 150.502 10.6201L148.282 10.6266L148.304 18.3065L147.068 18.3102L147.019 1.33023L151.363 1.31748C153.315 1.31176 154.776 1.68747 155.746 2.44463C156.724 3.19377 157.215 4.30033 157.22 5.76432C157.222 6.41232 157.111 7.00465 156.889 7.5413C156.667 8.07796 156.344 8.5509 155.921 8.96015C155.506 9.36137 154.999 9.69085 154.4 9.94861C153.809 10.2063 153.141 10.3803 152.398 10.4705C152.59 10.5899 152.762 10.7494 152.915 10.949L158.78 18.2758Z" fill="white"/>
</svg>
